<?xml version="1.0" encoding="UTF-8" standalone="no"?>
<svg
   viewBox="0 0 384 512"
   version="1.1"
   id="svg1"
   sodipodi:docname="apple.svg"
   inkscape:version="1.3.2 (091e20e, 2023-11-25)"
   xmlns:inkscape="http://www.inkscape.org/namespaces/inkscape"
   xmlns:sodipodi="http://sodipodi.sourceforge.net/DTD/sodipodi-0.dtd"
   xmlns="http://www.w3.org/2000/svg"
   xmlns:svg="http://www.w3.org/2000/svg">
  <defs
     id="defs1" />
  <sodipodi:namedview
     id="namedview1"
     pagecolor="#ffffff"
     bordercolor="#000000"
     borderopacity="0.25"
     inkscape:showpageshadow="2"
     inkscape:pageopacity="0.0"
     inkscape:pagecheckerboard="0"
     inkscape:deskcolor="#d1d1d1"
     inkscape:zoom="1.578125"
     inkscape:cx="192"
     inkscape:cy="256"
     inkscape:window-width="1920"
     inkscape:window-height="951"
     inkscape:window-x="0"
     inkscape:window-y="25"
     inkscape:window-maximized="0"
     inkscape:current-layer="svg1" />
  <!--!Font Awesome Free 6.5.1 by @fontawesome - https://fontawesome.com License - https://fontawesome.com/license/free Copyright 2024 Fonticons, Inc.-->
  <path
     d="M318.7 268.7c-.2-36.7 16.4-64.4 50-84.8-18.8-26.9-47.2-41.7-84.7-44.6-35.5-2.8-74.3 20.7-88.5 20.7-15 0-49.4-19.7-76.4-19.7C63.3 141.2 4 184.8 4 273.5q0 39.3 14.4 81.2c12.8 36.7 59 126.7 107.2 125.2 25.2-.6 43-17.9 75.8-17.9 31.8 0 48.3 17.9 76.4 17.9 48.6-.7 90.4-82.5 102.6-119.3-65.2-30.7-61.7-90-61.7-91.9zm-56.6-164.2c27.3-32.4 24.8-61.9 24-72.5-24.1 1.4-52 16.4-67.9 34.9-17.5 19.8-27.8 44.3-25.6 71.9 26.1 2 49.9-11.4 69.5-34.3z"
     id="path1" />
  <path
     style="fill:#ececec;stroke-width:0.633663"
     d="M 116.59406,478.73478 C 90.00704,473.38156 59.470677,440.13962 33.513643,388.29326 20.797013,362.89317 12.83022,339.82053 8.2915502,315.24752 3.5196621,289.41184 3.2454393,260.91238 7.5647923,239.71696 18.610589,185.51431 56.274924,148.34852 107.0027,141.59527 c 15.88443,-2.11465 27.58881,-0.39159 49.99529,7.36004 34.86676,12.06233 36.14809,12.3645 44.31405,10.45018 2.71996,-0.63763 8.79489,-2.57016 13.49984,-4.29452 34.2926,-12.56819 46.10615,-15.41447 63.68317,-15.3434 22.58494,0.0913 44.87191,6.43745 62.23433,17.72099 9.97081,6.47985 16.70195,12.69868 25.13324,23.22028 l 2.37696,2.96628 -5.73322,3.855 c -16.34365,10.98945 -27.86311,23.7543 -35.19907,39.00453 -10.66392,22.16849 -11.8842,51.46449 -3.15412,75.72278 8.50745,23.63964 28.14951,44.94553 52.30439,56.73494 l 3.54666,1.73105 -2.03516,5.46007 c -14.35046,38.50052 -38.95674,77.29345 -60.48316,95.35448 -7.58065,6.36029 -12.35769,9.53103 -19.26959,12.79012 -8.55546,4.03404 -12.67302,4.97548 -21.62225,4.9437 -9.47414,-0.0336 -15.56278,-1.35368 -28.85333,-6.25558 -25.93391,-9.56511 -29.33731,-10.41228 -43.70113,-10.87815 -13.98504,-0.45358 -21.90059,0.86364 -37.31775,6.20997 -6.13662,2.12805 -14.72185,5.09412 -19.07829,6.59126 -12.81674,4.40463 -22.27931,5.56133 -31.0495,3.79549 z"
     id="path2" />
  <path
     style="fill:#ff0000;stroke-width:0.633663"
     d="m 114.30749,477.79868 c -5.52923,-1.44975 -14.21337,-5.76841 -20.443233,-10.1665 -5.531406,-3.905 -17.379999,-15.23274 -23.462432,-22.43104 C 57.486357,429.91624 45.474971,411.06362 33.93185,387.95924 17.72547,355.52102 9.2214921,327.50982 5.989707,295.92079 4.5288426,281.64159 4.9758854,256.62754 6.8900144,245.54455 11.441619,219.19033 21.667291,196.81451 37.367769,178.85312 53.407869,160.5032 76.1495,147.69324 101.38614,142.79271 c 4.48561,-0.87103 8.92669,-1.16812 17.42574,-1.1657 10.79301,0.003 11.83266,0.11341 19.34659,2.05315 4.36736,1.12745 15.63073,4.63563 25.02971,7.79596 23.22721,7.80997 26.93492,8.84071 31.80114,8.84071 5.35698,0 8.38522,-0.82502 26.62292,-7.2532 27.60948,-9.73142 37.4482,-12.16116 51.8135,-12.7957 33.53326,-1.48123 66.95558,11.82475 86.96735,34.62316 2.60029,2.96238 5.27665,6.15425 5.94748,7.09305 l 1.21969,1.7069 -3.97815,2.67292 c -12.58287,8.45444 -23.90782,19.41947 -30.58962,29.61744 -6.66493,10.17221 -10.5623,19.87047 -13.14756,32.7165 -1.16507,5.78914 -1.40579,9.10113 -1.40579,19.3417 0,13.80913 1.14479,21.51511 4.83177,32.52436 7.87556,23.51625 27.72937,46.0067 50.80277,57.54952 2.84561,1.42356 5.25992,2.66499 5.36514,2.75873 0.47064,0.41933 -8.0393,20.6624 -12.81396,30.48128 -6.63943,13.65367 -11.40955,22.0047 -19.79768,34.65964 -15.51284,23.40382 -30.46689,38.41724 -46.47074,46.65528 -10.41241,5.35983 -12.89329,5.99524 -23.44555,6.00508 -11.18762,0.0104 -14.27211,-0.70246 -34.36178,-7.94175 -22.7135,-8.18477 -23.52343,-8.35218 -40.72733,-8.4183 -17.71372,-0.0681 -17.7226,-0.0663 -43.40594,8.51886 -10.28119,3.4367 -20.89095,6.6915 -23.57724,7.23288 -6.52274,1.31455 -14.91668,1.20559 -20.53111,-0.2665 z"
     id="path3" />
  <path
     style="fill:#ff0000;stroke-width:0.633663"
     d="m 192.6374,132.05533 c 0.0132,-24.47663 9.78411,-47.728979 28.34875,-67.463309 15.72968,-16.72075 39.76181,-29.22983 61.41042,-31.965038 l 3.26785,-0.412879 0.44588,4.758098 c 0.86886,9.272068 -1.69011,25.544258 -5.67155,36.064767 -8.22287,21.727979 -26.27128,43.099641 -46.61971,55.203751 -10.55953,6.28127 -21.84646,9.68149 -34.3735,10.35511 l -6.81188,0.36631 z"
     id="path4" />
</svg>
